<svg width="40" height="40" viewBox="0 0 40 40" fill="none" xmlns="http://www.w3.org/2000/svg">
<path d="M28.5758 5.15112C24.3381 5.15112 20.9868 6.37295 18.632 8.7772C15.047 12.4295 14.9985 17.5446 15.0249 18.5343L15.047 19.5021L26.4415 19.5021C30.6836 19.5021 34.0305 18.2847 36.3897 15.8804C39.9703 12.2325 40.0233 7.11306 39.9968 6.12333L39.9703 5.15112L28.5758 5.15112ZM20.0652 10.1654C22.0319 8.15971 24.8981 7.14371 28.5758 7.14371C28.5758 7.14371 36.275 7.14371 37.9551 7.14371C37.8405 8.7772 37.3245 12.0661 34.9477 14.4878C32.981 16.4936 30.1192 17.5096 26.4371 17.5096C26.4371 17.5096 18.7379 17.5096 17.0578 17.5096C17.1724 15.8761 17.6928 12.5872 20.0652 10.1654Z" fill="#00C527"/>
<path d="M3.61726 0.00195878L2.64273 0.0282346L2.64273 8.93575C2.64273 12.229 3.60844 14.8391 5.51782 16.6828C8.40615 19.4768 12.4454 19.5162 13.2259 19.4987L14.2004 19.4724V10.5649C14.2004 7.26724 13.2347 4.66155 11.3297 2.81786C8.43701 0.0238554 4.40218 -0.0155585 3.61726 0.00195878ZM6.91568 15.2595C5.4164 13.8055 4.64912 11.6772 4.64912 8.94013C4.64912 8.94013 4.64912 3.60613 4.64912 2.03834C5.94556 2.1522 8.22535 2.59889 9.92748 4.24551C11.4312 5.69944 12.194 7.82779 12.194 10.5649C12.194 10.5649 12.194 15.8989 12.194 17.4667C10.8976 17.3484 8.61781 16.9017 6.91568 15.2595Z" fill="#FFC700"/>
<path d="M15.9952 20.4957L15.0206 20.522L15.0206 29.4339C15.0206 32.7271 15.9863 35.3372 17.8913 37.1809C20.7796 39.9749 24.8189 40.0143 25.5994 39.9968L26.5739 39.9705V31.0542C26.5739 27.7566 25.6082 25.1509 23.7032 23.3072C20.8149 20.5132 16.7757 20.4738 15.9952 20.4957ZM19.2936 35.7488C17.7899 34.2949 17.027 32.1709 17.027 29.4295C17.027 29.4295 17.027 24.0955 17.027 22.5277C18.3235 22.6459 20.6032 23.0882 22.3054 24.7349C23.8047 26.1888 24.5719 28.3171 24.5719 31.0542C24.5719 31.0542 24.5719 36.3838 24.5719 37.956C23.2755 37.8378 20.9913 37.3954 19.2936 35.7488Z" fill="#EF443B"/>
<path d="M7.66546 20.4929C5.28425 20.4929 3.39251 21.1849 2.05197 22.5556C0.0191243 24.6314 -0.0117433 27.5173 0.00148569 28.0735L0.023534 29.0457H6.53218C8.91339 29.0457 10.8051 28.3494 12.1501 26.9831C14.1829 24.9116 14.2138 22.0213 14.1962 21.4651L14.1741 20.4929H7.66546ZM3.48511 23.9482C4.43759 22.976 5.84427 22.4855 7.66546 22.4855C7.66546 22.4855 10.7346 22.4855 12.128 22.4855C12.009 23.3526 11.6694 24.6182 10.7169 25.5904C9.76445 26.5626 8.35336 27.0531 6.53659 27.0531C6.53659 27.0531 3.47188 27.0531 2.07843 27.0531C2.19308 26.186 2.53263 24.9204 3.48511 23.9482Z" fill="#2790FF"/>
</svg>
